<mxfile host="app.diagrams.net" modified="2023-10-05T06:11:06.135Z" agent="Mozilla/5.0 (Windows NT 10.0; Win64; x64) AppleWebKit/537.36 (KHTML, like Gecko) Chrome/117.0.0.0 Safari/537.36" etag="FkpyDk0guAbyvZxPVZon" version="22.0.2" type="github">
  <diagram name="Sayfa -1" id="oncjjHCEygakG2wXm6mi">
    <mxGraphModel dx="1434" dy="790" grid="1" gridSize="10" guides="1" tooltips="1" connect="1" arrows="1" fold="1" page="1" pageScale="1" pageWidth="827" pageHeight="1169" math="0" shadow="0">
      <root>
        <mxCell id="0" />
        <mxCell id="1" parent="0" />
        <mxCell id="1Td7Pjo2DQRfd6kPVMqa-2" style="edgeStyle=orthogonalEdgeStyle;rounded=0;orthogonalLoop=1;jettySize=auto;html=1;" edge="1" parent="1" source="1Td7Pjo2DQRfd6kPVMqa-1">
          <mxGeometry relative="1" as="geometry">
            <mxPoint x="390" y="240" as="targetPoint" />
            <Array as="points">
              <mxPoint x="380" y="195" />
              <mxPoint x="391" y="195" />
            </Array>
          </mxGeometry>
        </mxCell>
        <mxCell id="1Td7Pjo2DQRfd6kPVMqa-1" value="başla" style="ellipse;whiteSpace=wrap;html=1;" vertex="1" parent="1">
          <mxGeometry x="330" y="120" width="120" height="80" as="geometry" />
        </mxCell>
        <mxCell id="1Td7Pjo2DQRfd6kPVMqa-4" style="edgeStyle=orthogonalEdgeStyle;rounded=0;orthogonalLoop=1;jettySize=auto;html=1;" edge="1" parent="1" source="1Td7Pjo2DQRfd6kPVMqa-3" target="1Td7Pjo2DQRfd6kPVMqa-5">
          <mxGeometry relative="1" as="geometry">
            <mxPoint x="380" y="360" as="targetPoint" />
          </mxGeometry>
        </mxCell>
        <mxCell id="1Td7Pjo2DQRfd6kPVMqa-3" value="sayıyı giriniz" style="shape=parallelogram;perimeter=parallelogramPerimeter;whiteSpace=wrap;html=1;fixedSize=1;" vertex="1" parent="1">
          <mxGeometry x="320" y="240" width="120" height="60" as="geometry" />
        </mxCell>
        <mxCell id="1Td7Pjo2DQRfd6kPVMqa-6" style="edgeStyle=orthogonalEdgeStyle;rounded=0;orthogonalLoop=1;jettySize=auto;html=1;" edge="1" parent="1" source="1Td7Pjo2DQRfd6kPVMqa-5">
          <mxGeometry relative="1" as="geometry">
            <mxPoint x="380" y="440" as="targetPoint" />
          </mxGeometry>
        </mxCell>
        <mxCell id="1Td7Pjo2DQRfd6kPVMqa-5" value="a" style="rounded=0;whiteSpace=wrap;html=1;" vertex="1" parent="1">
          <mxGeometry x="320" y="330" width="120" height="60" as="geometry" />
        </mxCell>
        <mxCell id="1Td7Pjo2DQRfd6kPVMqa-9" style="edgeStyle=orthogonalEdgeStyle;rounded=0;orthogonalLoop=1;jettySize=auto;html=1;entryX=0.5;entryY=0;entryDx=0;entryDy=0;" edge="1" parent="1" source="1Td7Pjo2DQRfd6kPVMqa-7" target="1Td7Pjo2DQRfd6kPVMqa-8">
          <mxGeometry relative="1" as="geometry" />
        </mxCell>
        <mxCell id="1Td7Pjo2DQRfd6kPVMqa-7" value="karesi=a*a" style="rounded=0;whiteSpace=wrap;html=1;" vertex="1" parent="1">
          <mxGeometry x="320" y="420" width="120" height="60" as="geometry" />
        </mxCell>
        <mxCell id="1Td7Pjo2DQRfd6kPVMqa-11" style="edgeStyle=orthogonalEdgeStyle;rounded=0;orthogonalLoop=1;jettySize=auto;html=1;" edge="1" parent="1" source="1Td7Pjo2DQRfd6kPVMqa-8" target="1Td7Pjo2DQRfd6kPVMqa-10">
          <mxGeometry relative="1" as="geometry" />
        </mxCell>
        <mxCell id="1Td7Pjo2DQRfd6kPVMqa-8" value="karesi" style="shape=document;whiteSpace=wrap;html=1;boundedLbl=1;" vertex="1" parent="1">
          <mxGeometry x="320" y="540" width="120" height="80" as="geometry" />
        </mxCell>
        <mxCell id="1Td7Pjo2DQRfd6kPVMqa-10" value="bitir" style="ellipse;whiteSpace=wrap;html=1;" vertex="1" parent="1">
          <mxGeometry x="320" y="670" width="120" height="80" as="geometry" />
        </mxCell>
      </root>
    </mxGraphModel>
  </diagram>
</mxfile>
